<svg version="1.1" id="Layer_1" xmlns="http://www.w3.org/2000/svg" xmlns:xlink="http://www.w3.org/1999/xlink" x="0px" y="0px"
	 viewBox="0 0 300 300" enable-background="new 0 0 300 300" xml:space="preserve">
<path fill="#EE5723" d="M256.3,43.8C237.8,25.2,213.1,15,186.9,15c-26.2,0-50.9,10.2-69.5,28.8c-34.7,34.7-37.9,89.2-9.6,127.6
	L15,264.2L35.8,285l92.8-92.8c16.8,12.4,37,19.3,58.3,19.3c26.2,0,50.9-10.2,69.5-28.8c18.6-18.6,28.8-43.2,28.8-69.5
	C285.1,87,274.9,62.3,256.3,43.8z M235.5,161.9c-13,13-30.3,20.1-48.6,20.1c-18.4,0-35.6-7.1-48.6-20.1c-26.8-26.8-26.8-70.4,0-97.3
	c13-13,30.3-20.1,48.6-20.1c18.4,0,35.6,7.2,48.6,20.1c13,13,20.1,30.3,20.1,48.6C255.6,131.6,248.5,148.9,235.5,161.9z"/>
</svg>
